<?xml version="1.0" standalone="no"?>
<!DOCTYPE svg PUBLIC "-//W3C//DTD SVG 20010904//EN"
 "http://www.w3.org/TR/2001/REC-SVG-20010904/DTD/svg10.dtd">
<svg version="1.0" xmlns="http://www.w3.org/2000/svg"
 width="320.000000pt" height="320.000000pt" viewBox="0 0 320.000000 320.000000"
 preserveAspectRatio="xMidYMid meet">
<metadata>
Created by potrace 1.14, written by Peter Selinger 2001-2017
</metadata>
<g transform="translate(0.000000,320.000000) scale(0.100000,-0.100000)"
fill="#000000" stroke="none">
<path d="M640 2206 c0 -3 7 -35 16 -73 9 -37 18 -79 20 -93 15 -82 77 -360 87
-389 11 -30 21 -37 106 -70 l93 -38 -93 -32 c-52 -18 -182 -64 -289 -101 -107
-38 -240 -84 -295 -103 -76 -26 -100 -39 -100 -52 0 -11 9 -19 23 -22 13 -1
94 -32 180 -67 560 -230 574 -236 593 -226 10 6 138 89 284 185 146 96 272
175 280 175 14 0 103 -34 160 -60 105 -49 470 -190 481 -186 25 10 4 32 -99
106 -56 41 -104 76 -107 80 -3 3 -45 34 -95 70 -49 35 -94 68 -100 72 -45 35
-59 50 -50 54 6 2 102 65 214 139 242 161 229 153 215 134 -29 -36 -56 -155
-56 -249 0 -245 138 -417 382 -476 53 -13 224 -13 279 0 56 13 158 50 188 68
l32 19 3 178 c3 159 5 181 22 200 11 12 29 21 42 21 23 0 41 16 30 27 -6 7
-322 11 -349 5 -25 -6 -15 -26 14 -29 86 -6 99 -37 99 -236 0 -155 -4 -165
-77 -187 -223 -66 -423 43 -479 261 -37 146 -11 354 58 455 31 45 107 102 167
124 66 26 178 21 243 -10 58 -27 115 -88 153 -163 19 -36 35 -57 44 -55 15 3
16 30 8 258 -2 52 -20 59 -53 21 l-21 -25 -79 18 c-44 9 -92 20 -109 24 -16 3
-61 6 -98 6 -51 -1 -64 2 -50 9 10 6 20 13 23 16 3 4 49 35 103 70 53 35 97
70 97 77 0 31 -33 31 -114 2 -44 -16 -106 -38 -136 -48 -30 -10 -140 -48 -245
-85 -645 -226 -902 -315 -913 -315 -5 0 -25 12 -45 28 -19 15 -46 35 -59 44
-12 9 -84 62 -158 117 -74 55 -150 110 -168 123 -18 13 -39 28 -45 33 -7 6
-28 22 -47 35 -19 13 -39 28 -45 32 -98 78 -165 120 -165 104z m278 -223 c378
-278 414 -305 408 -310 -3 -3 -76 -30 -163 -60 l-158 -54 -107 42 c-114 44
-109 39 -122 119 -2 14 -9 43 -14 65 -6 22 -14 56 -17 75 -3 19 -11 55 -17 80
-24 107 -45 210 -41 210 2 0 106 -75 231 -167z m847 -622 c28 -20 52 -38 55
-41 9 -9 254 -186 275 -198 11 -6 17 -12 13 -12 -6 0 -296 116 -373 150 -22 9
-66 28 -97 40 -32 13 -58 26 -58 29 1 12 115 79 125 73 5 -3 33 -22 60 -41z"/>
</g>
</svg>
